<?xml version="1.0" encoding="UTF-8" standalone="no"?>
<svg
   xmlns:dc="http://purl.org/dc/elements/1.1/"
   xmlns:cc="http://creativecommons.org/ns#"
   xmlns:rdf="http://www.w3.org/1999/02/22-rdf-syntax-ns#"
   xmlns:svg="http://www.w3.org/2000/svg"
   xmlns="http://www.w3.org/2000/svg"
   xmlns:sodipodi="http://sodipodi.sourceforge.net/DTD/sodipodi-0.dtd"
   xmlns:inkscape="http://www.inkscape.org/namespaces/inkscape"
   version="1.1"
   width="21.0007cm"
   height="29.700199cm"
   viewBox="0 0 82679.979 116930.03"
   id="svg318"
   sodipodi:docname="postal-brdT.svg"
   inkscape:version="0.92.2 (5c3e80d, 2017-08-06)">
  <metadata
     id="metadata324">
    <rdf:RDF>
      <cc:Work
         rdf:about="">
        <dc:format>image/svg+xml</dc:format>
        <dc:type
           rdf:resource="http://purl.org/dc/dcmitype/StillImage" />
        <dc:title>SVG Picture created as postal-brd.svg date 2018/01/19 17:17:22 </dc:title>
      </cc:Work>
    </rdf:RDF>
  </metadata>
  <defs
     id="defs322" />
  <sodipodi:namedview
     pagecolor="#ffffff"
     bordercolor="#666666"
     borderopacity="1"
     objecttolerance="10"
     gridtolerance="10"
     guidetolerance="10"
     inkscape:pageopacity="0"
     inkscape:pageshadow="2"
     inkscape:window-width="1280"
     inkscape:window-height="941"
     id="namedview320"
     showgrid="true"
     inkscape:document-units="mm"
     inkscape:zoom="2.0453847"
     inkscape:cx="459.38471"
     inkscape:cy="886.18222"
     inkscape:window-x="0"
     inkscape:window-y="0"
     inkscape:window-maximized="1"
     inkscape:current-layer="svg318">
    <inkscape:grid
       type="xygrid"
       id="grid482"
       units="mm"
       spacingx="393.70111"
       spacingy="393.70111" />
  </sodipodi:namedview>
  <title
     id="title2">SVG Picture created as postal-brd.svg date 2018/01/19 17:17:22 </title>
  <desc
     id="desc4">Picture generated by PCBNEW </desc>
  <g
     style="fill:#000000;fill-opacity:1;stroke:#000000;stroke-linecap:round;stroke-linejoin:round;stroke-opacity:1"
     id="g6"
     transform="translate(0,34250.025)" />
  <g
     style="fill:#000000;fill-opacity:0;stroke:#000000;stroke-width:-0.0003937;stroke-linecap:round;stroke-linejoin:round;stroke-opacity:1"
     id="g8"
     transform="translate(0,34250.025)" />
  <g
     id="g480"
     transform="matrix(1.0420751,0,0,1.0420751,8880.0693,-30058.265)">
    <g
       id="g116"
       style="fill:#000000;fill-opacity:0;stroke:#000000;stroke-width:39.37009811;stroke-linecap:round;stroke-linejoin:round;stroke-opacity:1">
      <path
         id="path10"
         d="m 42230,40050 v -750"
         inkscape:connector-curvature="0" />
      <path
         id="path12"
         d="M 42230,39300 H 39230"
         inkscape:connector-curvature="0" />
      <path
         id="path14"
         d="m 39230,39300 v 1000"
         inkscape:connector-curvature="0" />
      <path
         id="path16"
         d="m 39230,40300 h 2750"
         inkscape:connector-curvature="0" />
      <path
         id="path18"
         d="m 41980,40300 250,-250"
         inkscape:connector-curvature="0" />
      <path
         id="path20"
         d="M 25930,40523 H 21930"
         inkscape:connector-curvature="0" />
      <path
         id="path22"
         d="m 25930,36476 v 4047"
         inkscape:connector-curvature="0" />
      <path
         id="path24"
         d="m 21930,36476 h 4000"
         inkscape:connector-curvature="0" />
      <path
         id="path26"
         d="M 21930,40523 V 36476"
         inkscape:connector-curvature="0" />
      <path
         id="path28"
         d="m 22680,40106 393,394"
         inkscape:connector-curvature="0" />
      <path
         id="path30"
         d="m 22680,36500 v 3606"
         inkscape:connector-curvature="0" />
      <path
         id="path32"
         d="M 25180,36500 H 22680"
         inkscape:connector-curvature="0" />
      <path
         id="path34"
         d="M 25180,40500 V 36500"
         inkscape:connector-curvature="0" />
      <path
         id="path36"
         d="m 23073,40500 h 2107"
         inkscape:connector-curvature="0" />
      <path
         id="path38"
         d="m 32180,51500 h 750"
         inkscape:connector-curvature="0" />
      <path
         id="path40"
         d="M 32930,51500 V 48500"
         inkscape:connector-curvature="0" />
      <path
         id="path42"
         d="M 32930,48500 H 31930"
         inkscape:connector-curvature="0" />
      <path
         id="path44"
         d="m 31930,48500 v 2750"
         inkscape:connector-curvature="0" />
      <path
         id="path46"
         d="m 31930,51250 250,250"
         inkscape:connector-curvature="0" />
      <path
         id="path48"
         d="M 33930,38000 V 36500"
         inkscape:connector-curvature="0" />
      <path
         id="path50"
         d="M 33930,36500 H 30930"
         inkscape:connector-curvature="0" />
      <path
         id="path52"
         d="m 30930,36500 v 2000"
         inkscape:connector-curvature="0" />
      <path
         id="path54"
         d="m 30930,38500 h 2500"
         inkscape:connector-curvature="0" />
      <path
         id="path56"
         d="m 33430,38500 500,-500"
         inkscape:connector-curvature="0" />
      <path
         id="path58"
         d="m 37139.1,38090.6 a 748.031,748.031 0 1 0 -917.9,0.2"
         inkscape:connector-curvature="0" />
      <circle
         id="circle60"
         r="590.55103"
         cy="37500"
         cx="36680" />
      <path
         id="path62"
         d="m 37139,38090 h -919"
         inkscape:connector-curvature="0" />
      <path
         id="path64"
         d="m 37014,42779 v 2520"
         inkscape:connector-curvature="0" />
      <path
         id="path66"
         d="m 38845,42779 v 2520"
         inkscape:connector-curvature="0" />
      <path
         id="path68"
         d="m 37142,42858 v 2362"
         inkscape:connector-curvature="0" />
      <path
         id="path70"
         d="m 38717,42858 v 2362"
         inkscape:connector-curvature="0" />
      <path
         id="path72"
         d="m 38845.4,42779.5 a 915.4,915.4 0 0 0 -1830.8,0"
         inkscape:connector-curvature="0" />
      <path
         id="path74"
         d="m 37014.6,45299.2 a 915.4,915.4 0 0 0 1830.8,0"
         inkscape:connector-curvature="0" />
      <path
         id="path76"
         d="m 38717.4,42858.3 a 787.402,787.402 0 0 0 -1574.8,0"
         inkscape:connector-curvature="0" />
      <path
         id="path78"
         d="m 37142.6,45220.5 a 787.402,787.402 0 0 0 1574.8,0"
         inkscape:connector-curvature="0" />
      <path
         id="path80"
         d="m 23073,46000 h 2107"
         inkscape:connector-curvature="0" />
      <path
         id="path82"
         d="M 25180,46000 V 42000"
         inkscape:connector-curvature="0" />
      <path
         id="path84"
         d="M 25180,42000 H 22680"
         inkscape:connector-curvature="0" />
      <path
         id="path86"
         d="m 22680,42000 v 3606"
         inkscape:connector-curvature="0" />
      <path
         id="path88"
         d="m 22680,45606 393,394"
         inkscape:connector-curvature="0" />
      <path
         id="path90"
         d="M 21930,46023 V 41976"
         inkscape:connector-curvature="0" />
      <path
         id="path92"
         d="m 21930,41976 h 4000"
         inkscape:connector-curvature="0" />
      <path
         id="path94"
         d="m 25930,41976 v 4047"
         inkscape:connector-curvature="0" />
      <path
         id="path96"
         d="M 25930,46023 H 21930"
         inkscape:connector-curvature="0" />
      <path
         id="path98"
         d="m 23073,51500 h 2107"
         inkscape:connector-curvature="0" />
      <path
         id="path100"
         d="M 25180,51500 V 47500"
         inkscape:connector-curvature="0" />
      <path
         id="path102"
         d="M 25180,47500 H 22680"
         inkscape:connector-curvature="0" />
      <path
         id="path104"
         d="m 22680,47500 v 3606"
         inkscape:connector-curvature="0" />
      <path
         id="path106"
         d="m 22680,51106 393,394"
         inkscape:connector-curvature="0" />
      <path
         id="path108"
         d="M 21930,51523 V 47476"
         inkscape:connector-curvature="0" />
      <path
         id="path110"
         d="m 21930,47476 h 4000"
         inkscape:connector-curvature="0" />
      <path
         id="path112"
         d="m 25930,47476 v 4047"
         inkscape:connector-curvature="0" />
      <path
         id="path114"
         d="M 25930,51523 H 21930"
         inkscape:connector-curvature="0" />
    </g>
    <g
       id="g316"
       style="fill:#000000;fill-opacity:0;stroke:#000000;stroke-width:59.05509949;stroke-linecap:round;stroke-linejoin:round;stroke-opacity:1">
      <path
         id="path118"
         d="m 38634,40324 h 394 v -150 l -19,-37 -19,-19 -37,-19 h -56 l -38,19 -19,19 -18,37 v 150"
         inkscape:connector-curvature="0" />
      <path
         id="path120"
         d="m 39028,39968 -394,-94 281,-74 -281,-75 394,-94"
         inkscape:connector-curvature="0" />
      <path
         id="path122"
         d="m 38634,39256 188,131"
         inkscape:connector-curvature="0" />
      <path
         id="path124"
         d="m 38634,39481 h 394 v -150 l -19,-38 -19,-18 -37,-19 h -56 l -38,19 -19,18 -18,38 v 150"
         inkscape:connector-curvature="0" />
      <path
         id="path126"
         d="m 40861,39584 v 281 l 18,56 38,38 56,19 h 38"
         inkscape:connector-curvature="0" />
      <path
         id="path128"
         d="m 40505,39715 v 263"
         inkscape:connector-curvature="0" />
      <path
         id="path130"
         d="m 40598,39565 94,281 h -244"
         inkscape:connector-curvature="0" />
      <path
         id="path132"
         d="m 25373,36242 -56,18 h -94 l -37,-18 -19,-19 -19,-38 v -37 l 19,-38 19,-18 37,-19 75,-19 38,-19 18,-18 19,-38 v -37 l -19,-38 -18,-19 -38,-18 h -94 l -56,18"
         inkscape:connector-curvature="0" />
      <path
         id="path134"
         d="m 24979,36260 v -393 h -150 l -37,18 -19,19 -19,38 v 56 l 19,37 19,19 37,19 h 150"
         inkscape:connector-curvature="0" />
      <path
         id="path136"
         d="m 24586,36260 v -393"
         inkscape:connector-curvature="0" />
      <path
         id="path138"
         d="m 24492,36298 h -300"
         inkscape:connector-curvature="0" />
      <path
         id="path140"
         d="m 23967,36054 h 131"
         inkscape:connector-curvature="0" />
      <path
         id="path142"
         d="m 24098,36260 v -393 h -187"
         inkscape:connector-curvature="0" />
      <path
         id="path144"
         d="m 23573,36260 h 188 v -393"
         inkscape:connector-curvature="0" />
      <path
         id="path146"
         d="m 23461,36148 h -188"
         inkscape:connector-curvature="0" />
      <path
         id="path148"
         d="m 23498,36260 -131,-393 -131,393"
         inkscape:connector-curvature="0" />
      <path
         id="path150"
         d="m 23123,36242 -56,18 h -94 l -37,-18 -19,-19 -19,-38 v -37 l 19,-38 19,-18 37,-19 75,-19 38,-19 19,-18 18,-38 v -37 l -18,-38 -19,-19 -38,-18 h -93 l -57,18"
         inkscape:connector-curvature="0" />
      <path
         id="path152"
         d="m 22730,36260 v -393"
         inkscape:connector-curvature="0" />
      <path
         id="path154"
         d="m 22730,36054 h -225"
         inkscape:connector-curvature="0" />
      <path
         id="path156"
         d="m 22505,36260 v -393"
         inkscape:connector-curvature="0" />
      <path
         id="path158"
         d="m 24229,38284 v 319 l -18,37 -19,19 -38,19 h -75 l -37,-19 -19,-19 -19,-37 v -319"
         inkscape:connector-curvature="0" />
      <path
         id="path160"
         d="m 23630,38284 h 187 l 19,187 -19,-18 -37,-19 h -94 l -38,19 -18,18 -19,38 v 94 l 19,37 18,19 38,19 h 94 l 37,-19 19,-19"
         inkscape:connector-curvature="0" />
      <path
         id="path162"
         d="m 34023,48260 v -262"
         inkscape:connector-curvature="0" />
      <path
         id="path164"
         d="m 34023,47867 19,18 -19,19 -19,-19 19,-18 v 37"
         inkscape:connector-curvature="0" />
      <path
         id="path166"
         d="m 33854,47904 -18,-19 -38,-18 h -94 l -37,18 -19,19 -19,38 v 37 l 19,56 225,225 h -244"
         inkscape:connector-curvature="0" />
      <path
         id="path168"
         d="m 33292,48242 37,18 h 75 l 38,-18 19,-19 18,-38 v -112 l -18,-38 -19,-18 -38,-19 h -75 l -37,19"
         inkscape:connector-curvature="0" />
      <path
         id="path170"
         d="m 33123,48110 h -300"
         inkscape:connector-curvature="0" />
      <path
         id="path172"
         d="m 32636,48260 v -393"
         inkscape:connector-curvature="0" />
      <path
         id="path174"
         d="m 32467,48260 v -206 l 19,-37 37,-19 h 56 l 38,19 19,18"
         inkscape:connector-curvature="0" />
      <path
         id="path176"
         d="m 32130,48242 37,18 h 75 l 38,-18 18,-38 v -150 l -18,-37 -38,-19 h -75 l -37,19 -19,37 v 38 l 187,37"
         inkscape:connector-curvature="0" />
      <path
         id="path178"
         d="m 31773,48260 v -206 l 19,-37 38,-19 h 75 l 37,19"
         inkscape:connector-curvature="0" />
      <path
         id="path180"
         d="m 31773,48242 38,18 h 94 l 37,-18 19,-38 v -37 l -19,-38 -37,-19 h -94 l -38,-18"
         inkscape:connector-curvature="0" />
      <path
         id="path182"
         d="m 31417,48260 v -393"
         inkscape:connector-curvature="0" />
      <path
         id="path184"
         d="m 31417,48242 38,18 h 75 l 37,-18 19,-19 19,-38 v -112 l -19,-38 -19,-18 -37,-19 h -75 l -38,19"
         inkscape:connector-curvature="0" />
      <path
         id="path186"
         d="m 31080,48242 37,18 h 75 l 38,-18 18,-38 v -150 l -18,-37 -38,-19 h -75 l -37,19 -19,37 v 38 l 187,37"
         inkscape:connector-curvature="0" />
      <path
         id="path188"
         d="m 30892,48260 v -262"
         inkscape:connector-curvature="0" />
      <path
         id="path190"
         d="m 30892,48073 -19,-38 -18,-18 -38,-19 h -37"
         inkscape:connector-curvature="0" />
      <path
         id="path192"
         d="m 32895,50131 h -281 l -56,18 -38,38 -19,56 v 38"
         inkscape:connector-curvature="0" />
      <path
         id="path194"
         d="m 32858,49962 18,-19 19,-37 v -94 l -19,-37 -18,-19 -38,-19 h -37 l -57,19 -225,225 v -244"
         inkscape:connector-curvature="0" />
      <path
         id="path196"
         d="m 30353,38943 -19,-56 v -94 l 19,-37 19,-19 37,-19 h 38 l 37,19 19,19 19,37 18,75 19,38 19,18 37,19 h 38 l 37,-19 19,-18 19,-38 v -94 l -19,-56"
         inkscape:connector-curvature="0" />
      <path
         id="path198"
         d="m 30334,38549 h 394 v -150 l -19,-37 -19,-19 -37,-19 h -56 l -38,19 -19,19 -18,37 v 150"
         inkscape:connector-curvature="0" />
      <path
         id="path200"
         d="m 30334,38156 h 394"
         inkscape:connector-curvature="0" />
      <path
         id="path202"
         d="m 30297,38062 v -300"
         inkscape:connector-curvature="0" />
      <path
         id="path204"
         d="m 30540,37537 v 131"
         inkscape:connector-curvature="0" />
      <path
         id="path206"
         d="m 30334,37668 h 394 v -187"
         inkscape:connector-curvature="0" />
      <path
         id="path208"
         d="m 30334,37143 v 188 h 394"
         inkscape:connector-curvature="0" />
      <path
         id="path210"
         d="m 30447,37031 v -188"
         inkscape:connector-curvature="0" />
      <path
         id="path212"
         d="m 30334,37068 394,-131 -394,-131"
         inkscape:connector-curvature="0" />
      <path
         id="path214"
         d="m 30353,36693 -19,-56 v -94 l 19,-37 19,-19 37,-19 h 38 l 37,19 19,19 19,37 18,75 19,38 19,19 37,18 h 38 l 37,-18 19,-19 19,-38 v -93 l -19,-57"
         inkscape:connector-curvature="0" />
      <path
         id="path216"
         d="m 30334,36300 h 394"
         inkscape:connector-curvature="0" />
      <path
         id="path218"
         d="m 30540,36300 v -225"
         inkscape:connector-curvature="0" />
      <path
         id="path220"
         d="m 30334,36075 h 394"
         inkscape:connector-curvature="0" />
      <path
         id="path222"
         d="m 32561,37284 v 281 l 18,56 38,38 56,19 h 38"
         inkscape:connector-curvature="0" />
      <path
         id="path224"
         d="m 32167,37678 h 225"
         inkscape:connector-curvature="0" />
      <path
         id="path226"
         d="m 32280,37678 v -394 l 37,56 38,38 37,18"
         inkscape:connector-curvature="0" />
      <path
         id="path228"
         d="m 35336,37753 v 187 h 394"
         inkscape:connector-curvature="0" />
      <path
         id="path230"
         d="m 35542,37621 v -131"
         inkscape:connector-curvature="0" />
      <path
         id="path232"
         d="m 35336,37434 v 187 h 394 v -187"
         inkscape:connector-curvature="0" />
      <path
         id="path234"
         d="m 35336,37265 h 394 v -94 l -19,-56 -37,-37 -38,-19 -75,-19 h -56 l -75,19 -38,19 -37,37 -19,56 v 94"
         inkscape:connector-curvature="0" />
      <path
         id="path236"
         d="m 39139,44958 v 224"
         inkscape:connector-curvature="0" />
      <path
         id="path238"
         d="m 39139,45070 h 394 l -56,37 -38,38 -19,37"
         inkscape:connector-curvature="0" />
      <path
         id="path240"
         d="m 39402,44620 h -263"
         inkscape:connector-curvature="0" />
      <path
         id="path242"
         d="m 39552,44714 -282,94 v -244"
         inkscape:connector-curvature="0" />
      <path
         id="path244"
         d="m 39158,44395 h -19 l -37,19 -19,19"
         inkscape:connector-curvature="0" />
      <path
         id="path246"
         d="m 39533,44264 v -263 l -394,169"
         inkscape:connector-curvature="0" />
      <path
         id="path248"
         d="m 39402,43683 h -263"
         inkscape:connector-curvature="0" />
      <path
         id="path250"
         d="m 39552,43776 -282,94 v -244"
         inkscape:connector-curvature="0" />
      <path
         id="path252"
         d="m 39533,43289 v 187 l -188,19 19,-19 19,-37 v -94 l -19,-37 -19,-19 -37,-19 h -94 l -37,19 -19,19 -19,37 v 94 l 19,37 19,19"
         inkscape:connector-curvature="0" />
      <path
         id="path254"
         d="m 39533,42933 v 75 l -19,37 -19,19 -56,37 -75,19 h -150 l -37,-19 -19,-18 -19,-38 v -75 l 19,-37 19,-19 37,-19 h 94 l 37,19 19,19 19,37 v 75 l -19,38 -19,18 -37,19"
         inkscape:connector-curvature="0" />
      <path
         id="path256"
         d="m 37939,44226 h -188"
         inkscape:connector-curvature="0" />
      <path
         id="path258"
         d="m 38145,44358 -206,-132 206,-131"
         inkscape:connector-curvature="0" />
      <path
         id="path260"
         d="m 37751,43758 v 225"
         inkscape:connector-curvature="0" />
      <path
         id="path262"
         d="m 37751,43870 h 394 l -56,38 -38,37 -18,38"
         inkscape:connector-curvature="0" />
      <path
         id="path264"
         d="m 24876,41760 h -75 l -37,-18 -19,-19 -37,-56 -19,-75 v -150 l 19,-38 18,-19 38,-18 h 75 l 37,18 19,19 19,38 v 93 l -19,38 -19,19 -37,18 h -75 l -38,-18 -18,-19 -19,-38"
         inkscape:connector-curvature="0" />
      <path
         id="path266"
         d="m 24558,41367 h -244 l 131,150 h -56 l -38,18 -18,19 -19,38 v 93 l 19,38 18,19 38,18 h 112 l 38,-18 19,-19"
         inkscape:connector-curvature="0" />
      <path
         id="path268"
         d="m 23920,41723 19,19 56,18 h 38 l 56,-18 37,-38 19,-37 19,-75 v -57 l -19,-75 -19,-37 -37,-38 -56,-18 h -38 l -56,18 -19,19"
         inkscape:connector-curvature="0" />
      <path
         id="path270"
         d="m 23789,41760 -206,-262"
         inkscape:connector-curvature="0" />
      <path
         id="path272"
         d="m 23789,41498 -206,262"
         inkscape:connector-curvature="0" />
      <path
         id="path274"
         d="m 23470,41760 -206,-262"
         inkscape:connector-curvature="0" />
      <path
         id="path276"
         d="m 23470,41498 -206,262"
         inkscape:connector-curvature="0" />
      <path
         id="path278"
         d="m 23133,41648 h -188"
         inkscape:connector-curvature="0" />
      <path
         id="path280"
         d="m 23170,41760 -131,-393 -131,393"
         inkscape:connector-curvature="0" />
      <path
         id="path282"
         d="m 24229,43784 v 319 l -18,37 -19,19 -38,19 h -75 l -37,-19 -19,-19 -19,-37 v -319"
         inkscape:connector-curvature="0" />
      <path
         id="path284"
         d="m 23648,43784 h 75 l 38,19 19,18 37,57 19,75 v 150 l -19,37 -19,19 -37,19 h -75 l -38,-19 -18,-19 -19,-37 v -94 l 19,-38 18,-18 38,-19 h 75 l 37,19 19,18 19,38"
         inkscape:connector-curvature="0" />
      <path
         id="path286"
         d="m 24773,46904 -19,-19 -37,-18 h -94 l -37,18 -19,19 -19,38 v 37 l 19,56 225,225 h -244"
         inkscape:connector-curvature="0" />
      <path
         id="path288"
         d="m 24211,46998 v 262"
         inkscape:connector-curvature="0" />
      <path
         id="path290"
         d="m 24304,46848 94,281 h -244"
         inkscape:connector-curvature="0" />
      <path
         id="path292"
         d="m 23836,47242 37,18 h 75 l 38,-18 18,-19 19,-38 v -112 l -19,-38 -18,-18 -38,-19 h -75 l -37,19"
         inkscape:connector-curvature="0" />
      <path
         id="path294"
         d="m 23705,46867 -263,393"
         inkscape:connector-curvature="0" />
      <path
         id="path296"
         d="m 23442,46867 263,393"
         inkscape:connector-curvature="0" />
      <path
         id="path298"
         d="m 23330,46867 -263,393"
         inkscape:connector-curvature="0" />
      <path
         id="path300"
         d="m 23067,46867 263,393"
         inkscape:connector-curvature="0" />
      <path
         id="path302"
         d="m 24229,49284 v 319 l -18,37 -19,19 -38,19 h -75 l -37,-19 -19,-19 -19,-37 v -319"
         inkscape:connector-curvature="0" />
      <path
         id="path304"
         d="m 23648,49415 v 263"
         inkscape:connector-curvature="0" />
      <path
         id="path306"
         d="m 23742,49265 94,281 h -244"
         inkscape:connector-curvature="0" />
      <path
         id="path308"
         d="M 20473,52362 H 43701"
         inkscape:connector-curvature="0" />
      <path
         id="path310"
         d="M 20473,35433 V 52362"
         inkscape:connector-curvature="0" />
      <path
         id="path312"
         d="M 43701,35433 H 20473"
         inkscape:connector-curvature="0" />
      <path
         id="path314"
         d="M 43701,52362 V 35433"
         inkscape:connector-curvature="0" />
    </g>
  </g>
</svg>
