<?xml version="1.0" standalone="no"?>
 <!DOCTYPE svg PUBLIC "-//W3C//DTD SVG 1.1//EN" 
 "http://www.w3.org/Graphics/SVG/1.1/DTD/svg11.dtd"> 
<svg xmlns="http://www.w3.org/2000/svg" version="1.1" 
    width="29.7002cm" height="21.0007cm" viewBox="0 0 116930 82680 ">
<title>SVG Picture created as postal-brd.svg date 2018/01/19 17:22:18 </title>
  <desc>Picture generated by PCBNEW </desc>
<g style="fill:#000000; fill-opacity:1;stroke:#000000; stroke-opacity:1;
stroke-linecap:round; stroke-linejoin:round; "
 transform="translate(0 0) scale(1 1)">
</g>
<g style="fill:#000000; fill-opacity:0.0; 
stroke:#000000; stroke-width:-0.000393701; stroke-opacity:1; 
stroke-linecap:round; stroke-linejoin:round;">
</g>
<g style="fill:#000000; fill-opacity:0.0; 
stroke:#000000; stroke-width:118.11; stroke-opacity:1; 
stroke-linecap:round; stroke-linejoin:round;">
<path d="M43111 41042
L42661 41042
" />
<path d="M42886 41267
L42886 40817
" />
<path d="M42436 40676
L42070 40676
L42267 40901
L42183 40901
L42126 40929
L42098 40957
L42070 41014
L42070 41154
L42098 41210
L42126 41239
L42183 41267
L42351 41267
L42408 41239
L42436 41210
" />
<path d="M41789 41239
L41789 41267
L41817 41323
L41845 41351
" />
<path d="M41592 40676
L41226 40676
L41423 40901
L41339 40901
L41283 40929
L41255 40957
L41226 41014
L41226 41154
L41255 41210
L41283 41239
L41339 41267
L41508 41267
L41564 41239
L41592 41210
" />
<path d="M41058 40676
L40861 41267
L40664 40676
" />
<path d="M39689 41042
L39239 41042
" />
<path d="M39464 41267
L39464 40817
" />
<path d="M38676 40676
L38958 40676
L38986 40957
L38958 40929
L38901 40901
L38761 40901
L38705 40929
L38676 40957
L38648 41014
L38648 41154
L38676 41210
L38705 41239
L38761 41267
L38901 41267
L38958 41239
L38986 41210
" />
<path d="M38480 40676
L38283 41267
L38086 40676
" />
<path d="M27197 50723
L27225 50695
L27253 50638
L27253 50498
L27225 50442
L27197 50413
L27140 50385
L27084 50385
L27000 50413
L26662 50751
L26662 50385
" />
<path d="M27056 49879
L26662 49879
" />
<path d="M27281 50020
L26859 50160
L26859 49795
" />
<path d="M26719 49232
L26690 49260
L26662 49345
L26662 49401
L26690 49485
L26747 49542
L26803 49570
L26915 49598
L27000 49598
L27112 49570
L27169 49542
L27225 49485
L27253 49401
L27253 49345
L27225 49260
L27197 49232
" />
<path d="M26662 49035
L27056 48726
" />
<path d="M27056 49035
L26662 48726
" />
<path d="M26662 48557
L27056 48248
" />
<path d="M27056 48557
L26662 48248
" />
<path d="M26662 45167
L26662 45054
L26690 44998
L26719 44970
L26803 44913
L26915 44885
L27140 44885
L27197 44913
L27225 44942
L27253 44998
L27253 45110
L27225 45167
L27197 45195
L27140 45223
L27000 45223
L26944 45195
L26915 45167
L26887 45110
L26887 44998
L26915 44942
L26944 44913
L27000 44885
" />
<path d="M27253 44688
L27253 44323
L27028 44520
L27028 44435
L27000 44379
L26972 44351
L26915 44323
L26775 44323
L26719 44351
L26690 44379
L26662 44435
L26662 44604
L26690 44660
L26719 44688
" />
<path d="M26719 43732
L26690 43760
L26662 43845
L26662 43901
L26690 43985
L26747 44042
L26803 44070
L26915 44098
L27000 44098
L27112 44070
L27169 44042
L27225 43985
L27253 43901
L27253 43845
L27225 43760
L27197 43732
" />
<path d="M26662 43535
L27056 43226
" />
<path d="M27056 43535
L26662 43226
" />
<path d="M26662 43057
L27056 42748
" />
<path d="M27056 43057
L26662 42748
" />
<path d="M26740 39254
L26712 39170
L26712 39029
L26740 38973
L26769 38945
L26825 38917
L26881 38917
L26937 38945
L26965 38973
L26994 39029
L27022 39142
L27050 39198
L27078 39226
L27134 39254
L27190 39254
L27247 39226
L27275 39198
L27303 39142
L27303 39001
L27275 38917
" />
<path d="M26712 38664
L27303 38664
L27303 38439
L27275 38382
L27247 38354
L27190 38326
L27106 38326
L27050 38354
L27022 38382
L26994 38439
L26994 38664
" />
<path d="M26712 38073
L27303 38073
" />
</g>
<g style="fill:#000000; fill-opacity:0.0; 
stroke:#000000; stroke-width:39.3701; stroke-opacity:1; 
stroke-linecap:round; stroke-linejoin:round;">
<path d="M42230 40050
L42230 39300
" />
<path d="M42230 39300
L39230 39300
" />
<path d="M39230 39300
L39230 40300
" />
<path d="M39230 40300
L41980 40300
" />
<path d="M41980 40300
L42230 40050
" />
<path d="M25930 40523
L21930 40523
" />
<path d="M25930 36476
L25930 40523
" />
<path d="M21930 36476
L25930 36476
" />
<path d="M21930 40523
L21930 36476
" />
<path d="M22680 40106
L23073 40500
" />
<path d="M22680 36500
L22680 40106
" />
<path d="M25180 36500
L22680 36500
" />
<path d="M25180 40500
L25180 36500
" />
<path d="M23073 40500
L25180 40500
" />
<path d="M32180 51500
L32930 51500
" />
<path d="M32930 51500
L32930 48500
" />
<path d="M32930 48500
L31930 48500
" />
<path d="M31930 48500
L31930 51250
" />
<path d="M31930 51250
L32180 51500
" />
<path d="M33930 38000
L33930 36500
" />
<path d="M33930 36500
L30930 36500
" />
<path d="M30930 36500
L30930 38500
" />
<path d="M30930 38500
L33430 38500
" />
<path d="M33430 38500
L33930 38000
" />
<path d="M37139.1 38090.6 A748.031 748.031 0.0 1 0 36221.2 38090.8 " />
<circle cx="36680" cy="37500" r="590.551" /> 
<path d="M37139 38090
L36220 38090
" />
<path d="M37014 42779
L37014 45299
" />
<path d="M38845 42779
L38845 45299
" />
<path d="M37142 42858
L37142 45220
" />
<path d="M38717 42858
L38717 45220
" />
<path d="M38845.4 42779.5 A915.354 915.354 0.0 0 0 37014.6 42779.5 " />
<path d="M37014.6 45299.2 A915.354 915.354 0.0 0 0 38845.4 45299.2 " />
<path d="M38717.4 42858.3 A787.402 787.402 0.0 0 0 37142.6 42858.3 " />
<path d="M37142.6 45220.5 A787.402 787.402 0.0 0 0 38717.4 45220.5 " />
<path d="M23073 46000
L25180 46000
" />
<path d="M25180 46000
L25180 42000
" />
<path d="M25180 42000
L22680 42000
" />
<path d="M22680 42000
L22680 45606
" />
<path d="M22680 45606
L23073 46000
" />
<path d="M21930 46023
L21930 41976
" />
<path d="M21930 41976
L25930 41976
" />
<path d="M25930 41976
L25930 46023
" />
<path d="M25930 46023
L21930 46023
" />
<path d="M23073 51500
L25180 51500
" />
<path d="M25180 51500
L25180 47500
" />
<path d="M25180 47500
L22680 47500
" />
<path d="M22680 47500
L22680 51106
" />
<path d="M22680 51106
L23073 51500
" />
<path d="M21930 51523
L21930 47476
" />
<path d="M21930 47476
L25930 47476
" />
<path d="M25930 47476
L25930 51523
" />
<path d="M25930 51523
L21930 51523
" />
</g>
<g style="fill:#000000; fill-opacity:0.0; 
stroke:#000000; stroke-width:59.0551; stroke-opacity:1; 
stroke-linecap:round; stroke-linejoin:round;">
<path d="M38634 40324
L39028 40324
L39028 40174
L39009 40137
L38990 40118
L38953 40099
L38897 40099
L38859 40118
L38840 40137
L38822 40174
L38822 40324
" />
<path d="M39028 39968
L38634 39874
L38915 39800
L38634 39725
L39028 39631
" />
<path d="M38634 39256
L38822 39387
" />
<path d="M38634 39481
L39028 39481
L39028 39331
L39009 39293
L38990 39275
L38953 39256
L38897 39256
L38859 39275
L38840 39293
L38822 39331
L38822 39481
" />
<path d="M40861 39584
L40861 39865
L40879 39921
L40917 39959
L40973 39978
L41011 39978
" />
<path d="M40505 39715
L40505 39978
" />
<path d="M40598 39565
L40692 39846
L40448 39846
" />
<path d="M25373 36242
L25317 36260
L25223 36260
L25186 36242
L25167 36223
L25148 36185
L25148 36148
L25167 36110
L25186 36092
L25223 36073
L25298 36054
L25336 36035
L25354 36017
L25373 35979
L25373 35942
L25354 35904
L25336 35885
L25298 35867
L25204 35867
L25148 35885
" />
<path d="M24979 36260
L24979 35867
L24829 35867
L24792 35885
L24773 35904
L24754 35942
L24754 35998
L24773 36035
L24792 36054
L24829 36073
L24979 36073
" />
<path d="M24586 36260
L24586 35867
" />
<path d="M24492 36298
L24192 36298
" />
<path d="M23967 36054
L24098 36054
" />
<path d="M24098 36260
L24098 35867
L23911 35867
" />
<path d="M23573 36260
L23761 36260
L23761 35867
" />
<path d="M23461 36148
L23273 36148
" />
<path d="M23498 36260
L23367 35867
L23236 36260
" />
<path d="M23123 36242
L23067 36260
L22973 36260
L22936 36242
L22917 36223
L22898 36185
L22898 36148
L22917 36110
L22936 36092
L22973 36073
L23048 36054
L23086 36035
L23105 36017
L23123 35979
L23123 35942
L23105 35904
L23086 35885
L23048 35867
L22955 35867
L22898 35885
" />
<path d="M22730 36260
L22730 35867
" />
<path d="M22730 36054
L22505 36054
" />
<path d="M22505 36260
L22505 35867
" />
<path d="M24229 38284
L24229 38603
L24211 38640
L24192 38659
L24154 38678
L24079 38678
L24042 38659
L24023 38640
L24004 38603
L24004 38284
" />
<path d="M23630 38284
L23817 38284
L23836 38471
L23817 38453
L23780 38434
L23686 38434
L23648 38453
L23630 38471
L23611 38509
L23611 38603
L23630 38640
L23648 38659
L23686 38678
L23780 38678
L23817 38659
L23836 38640
" />
<path d="M34023 48260
L34023 47998
" />
<path d="M34023 47867
L34042 47885
L34023 47904
L34004 47885
L34023 47867
L34023 47904
" />
<path d="M33854 47904
L33836 47885
L33798 47867
L33704 47867
L33667 47885
L33648 47904
L33629 47942
L33629 47979
L33648 48035
L33873 48260
L33629 48260
" />
<path d="M33292 48242
L33329 48260
L33404 48260
L33442 48242
L33461 48223
L33479 48185
L33479 48073
L33461 48035
L33442 48017
L33404 47998
L33329 47998
L33292 48017
" />
<path d="M33123 48110
L32823 48110
" />
<path d="M32636 48260
L32636 47867
" />
<path d="M32467 48260
L32467 48054
L32486 48017
L32523 47998
L32579 47998
L32617 48017
L32636 48035
" />
<path d="M32130 48242
L32167 48260
L32242 48260
L32280 48242
L32298 48204
L32298 48054
L32280 48017
L32242 47998
L32167 47998
L32130 48017
L32111 48054
L32111 48092
L32298 48129
" />
<path d="M31773 48260
L31773 48054
L31792 48017
L31830 47998
L31905 47998
L31942 48017
" />
<path d="M31773 48242
L31811 48260
L31905 48260
L31942 48242
L31961 48204
L31961 48167
L31942 48129
L31905 48110
L31811 48110
L31773 48092
" />
<path d="M31417 48260
L31417 47867
" />
<path d="M31417 48242
L31455 48260
L31530 48260
L31567 48242
L31586 48223
L31605 48185
L31605 48073
L31586 48035
L31567 48017
L31530 47998
L31455 47998
L31417 48017
" />
<path d="M31080 48242
L31117 48260
L31192 48260
L31230 48242
L31248 48204
L31248 48054
L31230 48017
L31192 47998
L31117 47998
L31080 48017
L31061 48054
L31061 48092
L31248 48129
" />
<path d="M30892 48260
L30892 47998
" />
<path d="M30892 48073
L30873 48035
L30855 48017
L30817 47998
L30780 47998
" />
<path d="M32895 50131
L32614 50131
L32558 50149
L32520 50187
L32501 50243
L32501 50281
" />
<path d="M32858 49962
L32876 49943
L32895 49906
L32895 49812
L32876 49775
L32858 49756
L32820 49737
L32783 49737
L32726 49756
L32501 49981
L32501 49737
" />
<path d="M30353 38943
L30334 38887
L30334 38793
L30353 38756
L30372 38737
L30409 38718
L30447 38718
L30484 38737
L30503 38756
L30522 38793
L30540 38868
L30559 38906
L30578 38924
L30615 38943
L30653 38943
L30690 38924
L30709 38906
L30728 38868
L30728 38774
L30709 38718
" />
<path d="M30334 38549
L30728 38549
L30728 38399
L30709 38362
L30690 38343
L30653 38324
L30597 38324
L30559 38343
L30540 38362
L30522 38399
L30522 38549
" />
<path d="M30334 38156
L30728 38156
" />
<path d="M30297 38062
L30297 37762
" />
<path d="M30540 37537
L30540 37668
" />
<path d="M30334 37668
L30728 37668
L30728 37481
" />
<path d="M30334 37143
L30334 37331
L30728 37331
" />
<path d="M30447 37031
L30447 36843
" />
<path d="M30334 37068
L30728 36937
L30334 36806
" />
<path d="M30353 36693
L30334 36637
L30334 36543
L30353 36506
L30372 36487
L30409 36468
L30447 36468
L30484 36487
L30503 36506
L30522 36543
L30540 36618
L30559 36656
L30578 36675
L30615 36693
L30653 36693
L30690 36675
L30709 36656
L30728 36618
L30728 36525
L30709 36468
" />
<path d="M30334 36300
L30728 36300
" />
<path d="M30540 36300
L30540 36075
" />
<path d="M30334 36075
L30728 36075
" />
<path d="M32561 37284
L32561 37565
L32579 37621
L32617 37659
L32673 37678
L32711 37678
" />
<path d="M32167 37678
L32392 37678
" />
<path d="M32280 37678
L32280 37284
L32317 37340
L32355 37378
L32392 37396
" />
<path d="M35336 37753
L35336 37940
L35730 37940
" />
<path d="M35542 37621
L35542 37490
" />
<path d="M35336 37434
L35336 37621
L35730 37621
L35730 37434
" />
<path d="M35336 37265
L35730 37265
L35730 37171
L35711 37115
L35674 37078
L35636 37059
L35561 37040
L35505 37040
L35430 37059
L35392 37078
L35355 37115
L35336 37171
L35336 37265
" />
<path d="M39139 44958
L39139 45182
" />
<path d="M39139 45070
L39533 45070
L39477 45107
L39439 45145
L39420 45182
" />
<path d="M39402 44620
L39139 44620
" />
<path d="M39552 44714
L39270 44808
L39270 44564
" />
<path d="M39158 44395
L39139 44395
L39102 44414
L39083 44433
" />
<path d="M39533 44264
L39533 44001
L39139 44170
" />
<path d="M39402 43683
L39139 43683
" />
<path d="M39552 43776
L39270 43870
L39270 43626
" />
<path d="M39533 43289
L39533 43476
L39345 43495
L39364 43476
L39383 43439
L39383 43345
L39364 43308
L39345 43289
L39308 43270
L39214 43270
L39177 43289
L39158 43308
L39139 43345
L39139 43439
L39158 43476
L39177 43495
" />
<path d="M39533 42933
L39533 43008
L39514 43045
L39495 43064
L39439 43101
L39364 43120
L39214 43120
L39177 43101
L39158 43083
L39139 43045
L39139 42970
L39158 42933
L39177 42914
L39214 42895
L39308 42895
L39345 42914
L39364 42933
L39383 42970
L39383 43045
L39364 43083
L39345 43101
L39308 43120
" />
<path d="M37939 44226
L37751 44226
" />
<path d="M38145 44358
L37939 44226
L38145 44095
" />
<path d="M37751 43758
L37751 43983
" />
<path d="M37751 43870
L38145 43870
L38089 43908
L38051 43945
L38033 43983
" />
<path d="M24876 41760
L24801 41760
L24764 41742
L24745 41723
L24708 41667
L24689 41592
L24689 41442
L24708 41404
L24726 41385
L24764 41367
L24839 41367
L24876 41385
L24895 41404
L24914 41442
L24914 41535
L24895 41573
L24876 41592
L24839 41610
L24764 41610
L24726 41592
L24708 41573
L24689 41535
" />
<path d="M24558 41367
L24314 41367
L24445 41517
L24389 41517
L24351 41535
L24333 41554
L24314 41592
L24314 41685
L24333 41723
L24351 41742
L24389 41760
L24501 41760
L24539 41742
L24558 41723
" />
<path d="M23920 41723
L23939 41742
L23995 41760
L24033 41760
L24089 41742
L24126 41704
L24145 41667
L24164 41592
L24164 41535
L24145 41460
L24126 41423
L24089 41385
L24033 41367
L23995 41367
L23939 41385
L23920 41404
" />
<path d="M23789 41760
L23583 41498
" />
<path d="M23789 41498
L23583 41760
" />
<path d="M23470 41760
L23264 41498
" />
<path d="M23470 41498
L23264 41760
" />
<path d="M23133 41648
L22945 41648
" />
<path d="M23170 41760
L23039 41367
L22908 41760
" />
<path d="M24229 43784
L24229 44103
L24211 44140
L24192 44159
L24154 44178
L24079 44178
L24042 44159
L24023 44140
L24004 44103
L24004 43784
" />
<path d="M23648 43784
L23723 43784
L23761 43803
L23780 43821
L23817 43878
L23836 43953
L23836 44103
L23817 44140
L23798 44159
L23761 44178
L23686 44178
L23648 44159
L23630 44140
L23611 44103
L23611 44009
L23630 43971
L23648 43953
L23686 43934
L23761 43934
L23798 43953
L23817 43971
L23836 44009
" />
<path d="M24773 46904
L24754 46885
L24717 46867
L24623 46867
L24586 46885
L24567 46904
L24548 46942
L24548 46979
L24567 47035
L24792 47260
L24548 47260
" />
<path d="M24211 46998
L24211 47260
" />
<path d="M24304 46848
L24398 47129
L24154 47129
" />
<path d="M23836 47242
L23873 47260
L23948 47260
L23986 47242
L24004 47223
L24023 47185
L24023 47073
L24004 47035
L23986 47017
L23948 46998
L23873 46998
L23836 47017
" />
<path d="M23705 46867
L23442 47260
" />
<path d="M23442 46867
L23705 47260
" />
<path d="M23330 46867
L23067 47260
" />
<path d="M23067 46867
L23330 47260
" />
<path d="M24229 49284
L24229 49603
L24211 49640
L24192 49659
L24154 49678
L24079 49678
L24042 49659
L24023 49640
L24004 49603
L24004 49284
" />
<path d="M23648 49415
L23648 49678
" />
<path d="M23742 49265
L23836 49546
L23592 49546
" />
<path d="M20473 52362
L43701 52362
" />
<path d="M20473 35433
L20473 52362
" />
<path d="M43701 35433
L20473 35433
" />
<path d="M43701 52362
L43701 35433
" />
</g> 
</svg>
